HIERARCHY
ROOT Hips
{
	OFFSET 0.000000 0.000000 0.000000 
	CHANNELS 6 Xposition Yposition Zposition Zrotation Yrotation Xrotation
	JOINT LHipJoint
	{
		OFFSET 0.000000 0.000000 0.000000 
		CHANNELS 3 Zrotation Yrotation Xrotation
		JOINT LeftUpLeg
		{
			OFFSET 0.086425 -0.122859 0.034017 
			CHANNELS 3 Zrotation Yrotation Xrotation
			JOINT LeftLeg
			{
				OFFSET 0.170060 -0.467236 0.000000 
				CHANNELS 3 Zrotation Yrotation Xrotation
				JOINT LeftFoot
				{
					OFFSET 0.170651 -0.468860 0.000000 
					CHANNELS 3 Zrotation Yrotation Xrotation
					JOINT LeftToeBase
					{
						OFFSET 0.010094 -0.027732 0.136269 
						CHANNELS 3 Zrotation Yrotation Xrotation
						End Site
						{
							OFFSET 0.000000 -0.000000 0.070079 
						}
					}
				}
			}
		}
	}
	JOINT RHipJoint
	{
		OFFSET 0.000000 0.000000 0.000000 
		CHANNELS 3 Zrotation Yrotation Xrotation
		JOINT RightUpLeg
		{
			OFFSET -0.098265 -0.122859 0.034017 
			CHANNELS 3 Zrotation Yrotation Xrotation
			JOINT RightLeg
			{
				OFFSET -0.184959 -0.508173 0.000000 
				CHANNELS 3 Zrotation Yrotation Xrotation
				JOINT RightFoot
				{
					OFFSET -0.157716 -0.433319 0.000000 
					CHANNELS 3 Zrotation Yrotation Xrotation
					JOINT RightToeBase
					{
						OFFSET -0.002797 -0.006357 0.116680 
						CHANNELS 3 Zrotation Yrotation Xrotation
						End Site
						{
							OFFSET -0.000000 -0.000000 0.059473 
						}
					}
				}
			}
		}
	}
	JOINT LowerBack
	{
		OFFSET 0.000000 0.000000 0.000000 
		CHANNELS 3 Zrotation Yrotation Xrotation
		JOINT Spine
		{
			OFFSET 0.000418 0.129604 0.005690 
			CHANNELS 3 Zrotation Yrotation Xrotation
			JOINT Spine1
			{
				OFFSET -0.000415 0.128874 -0.002958 
				CHANNELS 3 Zrotation Yrotation Xrotation
				JOINT Neck
				{
					OFFSET 0.000000 0.000000 0.000000 
					CHANNELS 3 Zrotation Yrotation Xrotation
					JOINT Neck1
					{
						OFFSET -0.000013 0.093718 0.010216 
						CHANNELS 3 Zrotation Yrotation Xrotation
						JOINT Head
						{
							OFFSET 0.003800 0.094104 -0.016689 
							CHANNELS 3 Zrotation Yrotation Xrotation
							End Site
							{
								OFFSET 0.001079 0.097794 -0.007409 
							}
						}
					}
				}
				JOINT LeftShoulder
				{
					OFFSET 0.000000 0.000000 0.000000 
					CHANNELS 3 Zrotation Yrotation Xrotation
					JOINT LeftArm
					{
						OFFSET 0.196871 0.051833 -0.014055 
						CHANNELS 3 Zrotation Yrotation Xrotation
						JOINT LeftForeArm
						{
							OFFSET 0.355148 -0.000000 -0.000000 
							CHANNELS 3 Zrotation Yrotation Xrotation
							JOINT LeftHand
							{
								OFFSET 0.198195 -0.000000 0.000000 
								CHANNELS 3 Zrotation Yrotation Xrotation
								JOINT LeftFingerBase
								{
									OFFSET 0.000000 0.000000 0.000000 
									CHANNELS 3 Zrotation Yrotation Xrotation
									JOINT LeftHandIndex1
									{
										OFFSET 0.039543 -0.000000 0.000000 
										CHANNELS 3 Zrotation Yrotation Xrotation
										End Site
										{
											OFFSET 0.031881 -0.000000 0.000000 
										}
									}
								}
								JOINT LThumb
								{
									OFFSET 0.000000 0.000000 0.000000 
									CHANNELS 3 Zrotation Yrotation Xrotation
									End Site
									{
										OFFSET 0.032368 -0.000000 0.032368 
									}
								}
							}
						}
					}
				}
				JOINT RightShoulder
				{
					OFFSET 0.000000 0.000000 0.000000 
					CHANNELS 3 Zrotation Yrotation Xrotation
					JOINT RightArm
					{
						OFFSET -0.194107 0.057049 -0.020834 
						CHANNELS 3 Zrotation Yrotation Xrotation
						JOINT RightForeArm
						{
							OFFSET -0.366950 -0.000000 -0.000000 
							CHANNELS 3 Zrotation Yrotation Xrotation
							JOINT RightHand
							{
								OFFSET -0.210993 -0.000000 0.000000 
								CHANNELS 3 Zrotation Yrotation Xrotation
								JOINT RightFingerBase
								{
									OFFSET 0.000000 0.000000 0.000000 
									CHANNELS 3 Zrotation Yrotation Xrotation
									JOINT RightHandIndex1
									{
										OFFSET -0.037704 -0.000000 0.000000 
										CHANNELS 3 Zrotation Yrotation Xrotation
										End Site
										{
											OFFSET -0.030398 -0.000000 0.000000 
										}
									}
								}
								JOINT RThumb
								{
									OFFSET 0.000000 0.000000 0.000000 
									CHANNELS 3 Zrotation Yrotation Xrotation
									End Site
									{
										OFFSET -0.030862 -0.000000 0.030862 
									}
								}
							}
						}
					}
				}
			}
		}
	}
}
MOTION
Frames: 4
Frame Time: 0.033502
0.000000 0.762838 0.004862 0.000000 0.000000 40.699978 0.000000 0.000000 0.000000 9.090500 -14.961100 -106.415199 25.578400 19.236900 106.512100 1.583900 -6.540000 -22.568300 0.932600 -6.151600 -17.224800 0.000000 0.000000 0.000000 -3.595800 21.960199 -101.595703 -24.390900 -19.531300 102.935097 -1.117800 7.614200 -18.895500 -7.102600 15.417700 -49.261200 -0.093000 1.768400 17.626499 -0.365900 2.505600 4.998800 -0.868900 1.323300 -4.496600 -3.637100 -3.222200 -26.088800 4.536900 -3.517400 5.856300 1.638200 -1.326300 6.011400 -0.000000 -0.000000 0.000000 -72.988800 -50.274300 32.405499 74.292603 -59.046902 -46.440498 -0.000000 0.000000 -26.333799 17.710501 30.420099 9.184900 -7.125000 0.000000 -0.000000 -16.059099 60.911701 -6.319900 -0.000000 -0.000000 0.000000 73.957100 63.262798 29.096001 -42.836498 49.663399 -20.576000 0.000000 -0.000000 -17.822399 -30.729300 26.950701 -15.078500 7.125000 -0.000000 -0.000000 -0.362900 0.623700 -0.366900 
0.000000 0.743294 0.005669 0.000000 0.000000 40.699978 0.000000 0.000000 0.000000 9.155900 -14.745400 -107.202698 26.617201 18.916100 109.689499 2.011600 -10.262100 -25.483101 0.377800 -3.947800 -10.929800 0.000000 0.000000 0.000000 -3.949000 22.211800 -103.025299 -25.492901 -19.260700 106.252800 -1.387300 8.333100 -21.077900 -7.034200 15.360700 -49.003700 -1.160300 1.724500 20.534300 -0.121200 2.271100 5.174700 -0.050100 1.224900 -5.889800 -4.333700 -3.346900 -26.241501 5.455700 -3.476700 4.587600 2.057600 -1.230400 5.652600 0.000000 -0.000000 0.000000 -70.495499 -56.538200 30.644400 78.190804 -59.466400 -49.791199 -0.000000 0.000000 -27.755800 17.769501 31.006399 9.374300 -7.125000 0.000000 -0.000000 -16.429899 61.489799 -6.696100 0.000000 -0.000000 0.000000 68.987602 68.136703 28.078300 -47.889801 52.108200 -24.498800 0.000000 -0.000000 -16.801800 -30.844601 27.861500 -15.593400 7.125000 -0.000000 -0.000000 -0.265900 1.640300 -0.273400 
0.000000 0.732413 0.005763 0.000000 0.000000 40.699978 0.000000 0.000000 0.000000 9.208300 -14.144700 -108.472198 27.299900 18.671200 111.808701 2.198600 -9.535100 -26.638901 0.839300 -5.843900 -16.332300 0.000000 0.000000 0.000000 -4.057100 22.265699 -104.431099 -26.270399 -19.030001 108.623001 -1.452800 8.582100 -21.580099 -6.519800 14.913800 -47.034000 -1.675800 1.944000 22.816601 0.058800 2.460600 5.519000 0.317600 1.336100 -6.728900 -4.495800 -3.605900 -25.594500 5.361500 -3.667800 2.758100 2.037000 -1.336900 4.978800 0.000000 -0.000000 0.000000 -69.098396 -62.636501 28.793400 83.277802 -59.828602 -54.181801 -0.000000 0.000000 -28.480400 16.562901 31.064301 8.724700 -7.125000 0.000000 -0.000000 -17.796400 61.247799 -7.169900 0.000000 -0.000000 0.000000 61.697201 71.229500 22.821400 -55.314999 54.926399 -30.473600 0.000000 -0.000000 -18.304001 -30.581900 27.535000 -15.280400 7.125000 -0.000000 -0.000000 -0.172100 1.218400 -0.175700 
0.000000 0.729400 0.005581 0.000000 0.000000 40.699978 0.000000 0.000000 0.000000 8.088800 -13.706300 -108.272400 27.587500 18.559601 112.709503 2.295500 -10.564900 -27.251699 0.849100 -5.877000 -16.427900 0.000000 0.000000 0.000000 -3.615300 21.764200 -104.393402 -26.638300 -18.908899 109.754601 -1.618900 9.341500 -22.814301 -6.684200 15.060100 -47.669399 -2.370500 2.225900 25.322599 0.010800 2.629700 5.725400 0.528900 1.440900 -7.809700 -5.181200 -4.099400 -25.118500 5.818900 -4.142100 2.023100 2.243300 -1.550900 4.725900 -0.000000 0.000000 0.000000 -67.567001 -67.882599 27.047100 88.208801 -59.987900 -58.448898 -0.000000 0.000000 -29.953400 17.871799 31.351999 9.523700 -7.125000 0.000000 -0.000000 -16.582300 61.846500 -6.900300 -0.000000 0.000000 0.000000 55.748798 73.367699 17.302099 -62.056900 56.833599 -36.057800 0.000000 -0.000000 -18.862801 -30.347200 28.349701 -15.536200 7.125000 -0.000000 -0.000000 0.112400 2.035200 0.116300 
